# xmcd CD database file generated by Grip 3.0.5
# 
# Track frame offsets:
#       150
#       10330
#       19910
#       32938
#       40713
#       52527
#       68998
#       77680
#       90623
#       100500
#       110673
#       124560
#       134513
#       144795
#       155720
#       163730
#       177955
#       189240
#       199165
#       211422
# 
# Disc length: 2963 seconds
# 
# Revision: 2
# Processed by: cddbd v1.4PL0 Copyright (c) Steve Scherf et al.
# Submitted via: Grip 3.0.5
# 
DISCID=070b9114
DTITLE=Johnny Legend - Rockabilly Rumble
DYEAR=1994
DGENRE=Rock and Roll
TTITLE0=3 D Daddy
TTITLE1=She's Gone
TTITLE2=Jo Stalin
TTITLE3=Wild Wild Women
TTITLE4=Ramblin' Man
TTITLE5=Mad Dog Mama
TTITLE6=Let's Get Goin'
TTITLE7=Midnight Blues
TTITLE8=Are You Hep To It?
TTITLE9=Jack Hammer
TTITLE10=Please Gimme Something
TTITLE11=Running Gun
TTITLE12=Rockabilly Rumble
TTITLE13=The Naked Die Young
TTITLE14=Wild Wicked Wanda
TTITLE15=The South's Gonna Rise Again
TTITLE16=Hit That Jive Jack!
TTITLE17=Rockabilly Bastard
TTITLE18=Take Some Ludes And Get Funky
TTITLE19=Brand New Baby
EXTD=
EXTT0=
EXTT1=
EXTT2=
EXTT3=
EXTT4=
EXTT5=
EXTT6=
EXTT7=
EXTT8=
EXTT9=
EXTT10=
EXTT11=
EXTT12=
EXTT13=
EXTT14=
EXTT15=
EXTT16=
EXTT17=
EXTT18=
EXTT19=
PLAYORDER=
